<svg xmlns="http://www.w3.org/2000/svg" width="400" height="180" viewBox="0 0 400 180" role="img" aria-labelledby="title desc">
  <title id="title">LANGUAGE MIX</title>
  <desc id="desc">@atrx07 / bytes across original public work</desc>
  <style>
    .text { font-family: "Segoe UI", Ubuntu, Arial, sans-serif; }
    .label { fill: #8b949e; font-size: 12px; }
    .value { fill: #f0f6fc; font-size: 22px; font-weight: 700; }
  </style>
  <rect x="0.5" y="0.5" width="399" height="179" rx="6" fill="#0d1117" stroke="#e8ff6b"/>
  <text class="text" x="22" y="29" fill="#e8ff6b" font-size="14" font-weight="700">LANGUAGE MIX</text>
  <text class="text" x="22" y="48" fill="#8b949e" font-size="11">@atrx07 / bytes across original public work</text>
  <path d="M22 60H378" stroke="#30363d"/>
  <circle cx="27" cy="74" r="4" fill="#dea584"/>
  <text class="text" x="39" y="78" fill="#f0f6fc" font-size="12">Rust</text>
  <rect x="145" y="67" width="185" height="8" rx="4" fill="#21262d"/>
  <rect x="145" y="67" width="49.5" height="8" rx="4" fill="#dea584"/>
  <text class="text" x="378" y="78" fill="#8b949e" font-size="11" text-anchor="end">26.7%</text>
  <circle cx="27" cy="95" r="4" fill="#e34c26"/>
  <text class="text" x="39" y="99" fill="#f0f6fc" font-size="12">HTML</text>
  <rect x="145" y="88" width="185" height="8" rx="4" fill="#21262d"/>
  <rect x="145" y="88" width="39.2" height="8" rx="4" fill="#e34c26"/>
  <text class="text" x="378" y="99" fill="#8b949e" font-size="11" text-anchor="end">21.2%</text>
  <circle cx="27" cy="116" r="4" fill="#3178c6"/>
  <text class="text" x="39" y="120" fill="#f0f6fc" font-size="12">TypeScript</text>
  <rect x="145" y="109" width="185" height="8" rx="4" fill="#21262d"/>
  <rect x="145" y="109" width="34.6" height="8" rx="4" fill="#3178c6"/>
  <text class="text" x="378" y="120" fill="#8b949e" font-size="11" text-anchor="end">18.7%</text>
  <circle cx="27" cy="137" r="4" fill="#3572A5"/>
  <text class="text" x="39" y="141" fill="#f0f6fc" font-size="12">Python</text>
  <rect x="145" y="130" width="185" height="8" rx="4" fill="#21262d"/>
  <rect x="145" y="130" width="33.8" height="8" rx="4" fill="#3572A5"/>
  <text class="text" x="378" y="141" fill="#8b949e" font-size="11" text-anchor="end">18.3%</text>
  <circle cx="27" cy="158" r="4" fill="#f1e05a"/>
  <text class="text" x="39" y="162" fill="#f0f6fc" font-size="12">JavaScript</text>
  <rect x="145" y="151" width="185" height="8" rx="4" fill="#21262d"/>
  <rect x="145" y="151" width="15.1" height="8" rx="4" fill="#f1e05a"/>
  <text class="text" x="378" y="162" fill="#8b949e" font-size="11" text-anchor="end">8.2%</text>
</svg>
